<?xml version="1.0" encoding="UTF-8"?>
<!-- Created with Inkscape (http://www.inkscape.org/) -->
<svg width="2e3" height="500" version="1.1" viewBox="0 0 529 132" xmlns="http://www.w3.org/2000/svg">
 <g aria-label="Debrix">
  <path d="m34.6 74.3h-12.1v-34.2h12.2q5.16 0 8.88 2.05 3.72 2.04 5.72 5.86 2.02 3.82 2.02 9.15 0 5.34-2.02 9.18-2 3.84-5.76 5.89-3.74 2.05-8.95 2.05zm-4.89-6.19h4.59q3.2 0 5.39-1.13 2.2-1.15 3.3-3.56 1.12-2.42 1.12-6.24 0-3.79-1.12-6.19-1.1-2.4-3.29-3.54t-5.39-1.13h-4.61z"/>
  <path d="m68.2 74.8q-3.96 0-6.81-1.6-2.84-1.62-4.37-4.57-1.54-2.97-1.54-7.03 0-3.96 1.54-6.94 1.54-2.99 4.32-4.66 2.8-1.67 6.58-1.67 2.54 0 4.72 0.818 2.2 0.801 3.84 2.42 1.65 1.62 2.57 4.07 0.918 2.44 0.918 5.71v1.95h-21.6v-4.41h15q0-1.54-0.668-2.72-0.668-1.19-1.85-1.85-1.17-0.684-2.72-0.684-1.62 0-2.87 0.751-1.24 0.734-1.94 1.99-0.701 1.24-0.718 2.75v4.19q0 1.9 0.701 3.29 0.718 1.39 2.02 2.14 1.3 0.751 3.09 0.751 1.19 0 2.17-0.334t1.69-1q0.701-0.668 1.07-1.64l6.58 0.434q-0.501 2.37-2.05 4.14-1.54 1.75-3.97 2.74-2.42 0.968-5.59 0.968z"/>
  <path d="m84.8 74.3v-34.2h7.11v12.9h0.217q0.467-1.03 1.35-2.1 0.901-1.08 2.34-1.8 1.45-0.734 3.61-0.734 2.8 0 5.17 1.47 2.37 1.45 3.79 4.39 1.42 2.92 1.42 7.33 0 4.29-1.39 7.24-1.37 2.94-3.74 4.46-2.35 1.5-5.27 1.5-2.07 0-3.52-0.684-1.44-0.684-2.35-1.72-0.918-1.05-1.4-2.12h-0.317v4.11zm6.96-12.8q0 2.29 0.634 3.99 0.634 1.7 1.84 2.65 1.2 0.935 2.92 0.935 1.74 0 2.94-0.951 1.2-0.968 1.82-2.67 0.634-1.72 0.634-3.96 0-2.22-0.618-3.91-0.618-1.69-1.82-2.64-1.2-0.951-2.95-0.951-1.74 0-2.94 0.918-1.19 0.918-1.82 2.6-0.634 1.69-0.634 3.97z"/>
  <path d="m114 74.3v-25.6h6.89v4.47h0.267q0.701-2.39 2.35-3.61 1.65-1.24 3.81-1.24 0.534 0 1.15 0.0668t1.08 0.184v6.31q-0.501-0.15-1.39-0.267-0.885-0.117-1.62-0.117-1.57 0-2.8 0.684-1.22 0.668-1.94 1.87-0.701 1.2-0.701 2.77v14.5z"/>
  <path d="m134 74.3v-25.6h7.11v25.6zm3.57-28.9q-1.59 0-2.72-1.05-1.12-1.07-1.12-2.55 0-1.47 1.12-2.52 1.13-1.07 2.72-1.07 1.59 0 2.7 1.07 1.13 1.05 1.13 2.52 0 1.49-1.13 2.55-1.12 1.05-2.7 1.05z"/>
  <path d="m152 48.7 4.71 8.96 4.82-8.96h7.29l-7.43 12.8 7.63 12.8h-7.26l-5.06-8.86-4.97 8.86h-7.34l7.61-12.8-7.34-12.8z"/>
 </g>
 <g aria-label="Next-gen declarative library for building UIs for the web.">
  <path d="m31 82v9.45h-1.11l-5.15-7.42h-0.0923v7.42h-1.14v-9.45h1.11l5.17 7.44h0.0923v-7.44z"/>
  <path d="m36.2 91.6q-1.02 0-1.77-0.452-0.739-0.457-1.14-1.27-0.397-0.822-0.397-1.91 0-1.09 0.397-1.92 0.402-0.836 1.12-1.3 0.72-0.471 1.68-0.471 0.554 0 1.09 0.185t0.983 0.6q0.443 0.411 0.706 1.09 0.263 0.679 0.263 1.67v0.462h-5.47v-0.942h4.36q0-0.6-0.24-1.07-0.235-0.471-0.674-0.743-0.434-0.272-1.02-0.272-0.651 0-1.13 0.323-0.471 0.319-0.725 0.831-0.254 0.512-0.254 1.1v0.628q0 0.803 0.277 1.36 0.282 0.554 0.78 0.845 0.499 0.286 1.16 0.286 0.429 0 0.776-0.12 0.351-0.125 0.605-0.369 0.254-0.249 0.392-0.619l1.05 0.295q-0.166 0.536-0.559 0.942-0.392 0.402-0.969 0.628-0.577 0.222-1.3 0.222z"/>
  <path d="m41.4 84.4 1.7 2.9 1.7-2.9h1.26l-2.29 3.55 2.29 3.55h-1.26l-1.7-2.75-1.7 2.75h-1.26l2.25-3.55-2.25-3.55z"/>
  <path d="m50.7 84.4v0.923h-3.67v-0.923zm-2.6-1.7h1.09v6.76q0 0.462 0.134 0.692 0.138 0.226 0.351 0.305 0.217 0.0739 0.457 0.0739 0.18 0 0.295-0.0185 0.115-0.0231 0.185-0.0369l0.222 0.979q-0.111 0.0416-0.309 0.0831-0.199 0.0462-0.503 0.0462-0.462 0-0.905-0.199-0.439-0.199-0.729-0.605-0.286-0.406-0.286-1.02z"/>
  <path d="m56.1 86.9v1.02h-4.14v-1.02z"/>
  <path d="m60.9 94.3q-0.789 0-1.36-0.203-0.568-0.199-0.946-0.526-0.374-0.323-0.596-0.692l0.868-0.609q0.148 0.194 0.374 0.443 0.226 0.254 0.619 0.439 0.397 0.189 1.04 0.189 0.859 0 1.42-0.415 0.559-0.415 0.559-1.3v-1.44h-0.0923q-0.12 0.194-0.342 0.48-0.217 0.282-0.628 0.503-0.406 0.217-1.1 0.217-0.859 0-1.54-0.406-0.679-0.406-1.08-1.18-0.392-0.776-0.392-1.88 0-1.09 0.383-1.9 0.383-0.812 1.07-1.26 0.683-0.448 1.58-0.448 0.692 0 1.1 0.231 0.411 0.226 0.628 0.517 0.222 0.286 0.342 0.471h0.111v-1.13h1.05v7.29q0 0.914-0.415 1.49-0.411 0.577-1.11 0.845-0.692 0.272-1.54 0.272zm-0.0369-3.9q0.656 0 1.11-0.3t0.688-0.863q0.235-0.563 0.235-1.35 0-0.766-0.231-1.35-0.231-0.586-0.683-0.919-0.452-0.332-1.12-0.332-0.692 0-1.15 0.351-0.457 0.351-0.688 0.942-0.226 0.591-0.226 1.31 0 0.739 0.231 1.31 0.235 0.563 0.692 0.886 0.462 0.319 1.14 0.319z"/>
  <path d="m68.9 91.6q-1.02 0-1.77-0.452-0.739-0.457-1.14-1.27-0.397-0.822-0.397-1.91 0-1.09 0.397-1.92 0.402-0.836 1.12-1.3 0.72-0.471 1.68-0.471 0.554 0 1.09 0.185 0.54 0.185 0.983 0.6 0.443 0.411 0.706 1.09t0.263 1.67v0.462h-5.47v-0.942h4.36q0-0.6-0.24-1.07-0.235-0.471-0.674-0.743-0.434-0.272-1.02-0.272-0.651 0-1.13 0.323-0.471 0.319-0.725 0.831t-0.254 1.1v0.628q0 0.803 0.277 1.36 0.282 0.554 0.78 0.845 0.499 0.286 1.16 0.286 0.429 0 0.776-0.12 0.351-0.125 0.605-0.369 0.254-0.249 0.392-0.619l1.05 0.295q-0.166 0.536-0.559 0.942-0.392 0.402-0.969 0.628-0.577 0.222-1.3 0.222z"/>
  <path d="m74.6 87.2v4.27h-1.09v-7.09h1.05v1.11h0.0923q0.249-0.54 0.757-0.868 0.508-0.332 1.31-0.332 0.72 0 1.26 0.295 0.54 0.291 0.84 0.886 0.3 0.591 0.3 1.5v4.51h-1.09v-4.43q0-0.836-0.434-1.3-0.434-0.471-1.19-0.471-0.522 0-0.933 0.226-0.406 0.226-0.642 0.66-0.235 0.434-0.235 1.05z"/>
  <path d="m87.5 91.6q-0.886 0-1.56-0.448-0.679-0.452-1.06-1.27-0.383-0.826-0.383-1.95 0-1.12 0.383-1.94t1.07-1.27q0.683-0.448 1.58-0.448 0.692 0 1.09 0.231 0.406 0.226 0.619 0.517 0.217 0.286 0.337 0.471h0.0923v-3.49h1.09v9.45h-1.05v-1.09h-0.129q-0.12 0.194-0.342 0.489-0.222 0.291-0.632 0.522-0.411 0.226-1.09 0.226zm0.148-0.979q0.656 0 1.11-0.342 0.452-0.346 0.688-0.956 0.235-0.614 0.235-1.42 0-0.794-0.231-1.39-0.231-0.6-0.683-0.933-0.452-0.337-1.12-0.337-0.692 0-1.15 0.355-0.457 0.351-0.688 0.956-0.226 0.6-0.226 1.35 0 0.757 0.231 1.38 0.235 0.614 0.692 0.979 0.462 0.36 1.14 0.36z"/>
  <path d="m95.8 91.6q-1.02 0-1.77-0.452-0.739-0.457-1.14-1.27-0.397-0.822-0.397-1.91 0-1.09 0.397-1.92 0.402-0.836 1.12-1.3 0.72-0.471 1.68-0.471 0.554 0 1.09 0.185t0.983 0.6q0.443 0.411 0.706 1.09 0.263 0.679 0.263 1.67v0.462h-5.47v-0.942h4.36q0-0.6-0.24-1.07-0.235-0.471-0.674-0.743-0.434-0.272-1.02-0.272-0.651 0-1.13 0.323-0.471 0.319-0.725 0.831-0.254 0.512-0.254 1.1v0.628q0 0.803 0.277 1.36 0.282 0.554 0.78 0.845 0.499 0.286 1.16 0.286 0.429 0 0.776-0.12 0.351-0.125 0.605-0.369 0.254-0.249 0.392-0.619l1.05 0.295q-0.166 0.536-0.559 0.942-0.392 0.402-0.969 0.628-0.577 0.222-1.3 0.222z"/>
  <path d="m103 91.6q-0.997 0-1.72-0.471t-1.11-1.3-0.388-1.89q0-1.08 0.397-1.91 0.402-0.831 1.12-1.3 0.72-0.471 1.68-0.471 0.748 0 1.35 0.277 0.6 0.277 0.983 0.776 0.383 0.499 0.476 1.16h-1.09q-0.125-0.485-0.554-0.859-0.425-0.379-1.14-0.379-0.637 0-1.12 0.332-0.476 0.328-0.743 0.928-0.263 0.596-0.263 1.4 0 0.822 0.259 1.43 0.263 0.609 0.739 0.946 0.48 0.337 1.13 0.337 0.425 0 0.771-0.148 0.346-0.148 0.586-0.425 0.24-0.277 0.342-0.665h1.09q-0.0923 0.628-0.457 1.13-0.36 0.499-0.956 0.794-0.591 0.291-1.38 0.291z"/>
  <path d="m109 82v9.45h-1.09v-9.45z"/>
  <path d="m113 91.6q-0.674 0-1.22-0.254-0.549-0.259-0.873-0.743-0.323-0.489-0.323-1.18 0-0.609 0.24-0.988 0.24-0.383 0.642-0.6 0.402-0.217 0.886-0.323 0.489-0.111 0.983-0.175 0.646-0.0831 1.05-0.125 0.406-0.0462 0.591-0.152 0.189-0.106 0.189-0.369v-0.0369q0-0.683-0.374-1.06-0.369-0.379-1.12-0.379-0.78 0-1.22 0.342-0.443 0.342-0.623 0.729l-1.03-0.369q0.277-0.646 0.739-1.01 0.466-0.365 1.02-0.508 0.554-0.148 1.09-0.148 0.342 0 0.785 0.0831 0.448 0.0785 0.863 0.328 0.42 0.249 0.697 0.752 0.277 0.503 0.277 1.35v4.67h-1.09v-0.96h-0.0554q-0.111 0.231-0.369 0.494-0.259 0.263-0.688 0.448-0.429 0.185-1.05 0.185zm0.166-0.979q0.646 0 1.09-0.254 0.448-0.254 0.674-0.656 0.231-0.402 0.231-0.845v-0.997q-0.0692 0.0831-0.305 0.152-0.231 0.0646-0.536 0.115-0.3 0.0462-0.586 0.0831-0.282 0.0323-0.457 0.0554-0.425 0.0554-0.794 0.18-0.365 0.12-0.591 0.365-0.222 0.24-0.222 0.656 0 0.568 0.42 0.859 0.425 0.286 1.08 0.286z"/>
  <path d="m118 91.5v-7.09h1.05v1.07h0.0739q0.194-0.526 0.702-0.854t1.14-0.328q0.12 0 0.3 0.0046 0.18 0.0046 0.272 0.0138v1.11q-0.0554-0.0138-0.254-0.0416-0.194-0.0323-0.411-0.0323-0.517 0-0.923 0.217-0.402 0.212-0.637 0.591-0.231 0.374-0.231 0.854v4.49z"/>
  <path d="m125 91.6q-0.674 0-1.22-0.254-0.549-0.259-0.873-0.743-0.323-0.489-0.323-1.18 0-0.609 0.24-0.988 0.24-0.383 0.642-0.6 0.402-0.217 0.886-0.323 0.489-0.111 0.983-0.175 0.646-0.0831 1.05-0.125 0.406-0.0462 0.591-0.152 0.189-0.106 0.189-0.369v-0.0369q0-0.683-0.374-1.06-0.369-0.379-1.12-0.379-0.78 0-1.22 0.342-0.443 0.342-0.623 0.729l-1.03-0.369q0.277-0.646 0.739-1.01 0.466-0.365 1.02-0.508 0.554-0.148 1.09-0.148 0.342 0 0.785 0.0831 0.448 0.0785 0.863 0.328 0.42 0.249 0.697 0.752t0.277 1.35v4.67h-1.09v-0.96h-0.0554q-0.111 0.231-0.369 0.494-0.259 0.263-0.688 0.448t-1.05 0.185zm0.166-0.979q0.646 0 1.09-0.254 0.448-0.254 0.674-0.656 0.231-0.402 0.231-0.845v-0.997q-0.0692 0.0831-0.305 0.152-0.231 0.0646-0.536 0.115-0.3 0.0462-0.586 0.0831-0.282 0.0323-0.457 0.0554-0.425 0.0554-0.794 0.18-0.365 0.12-0.591 0.365-0.222 0.24-0.222 0.656 0 0.568 0.42 0.859 0.425 0.286 1.08 0.286z"/>
  <path d="m133 84.4v0.923h-3.67v-0.923zm-2.6-1.7h1.09v6.76q0 0.462 0.134 0.692 0.138 0.226 0.351 0.305 0.217 0.0739 0.457 0.0739 0.18 0 0.295-0.0185 0.115-0.0231 0.185-0.0369l0.222 0.979q-0.111 0.0416-0.309 0.0831-0.198 0.0462-0.503 0.0462-0.462 0-0.905-0.199-0.439-0.199-0.729-0.605-0.286-0.406-0.286-1.02z"/>
  <path d="m135 91.5v-7.09h1.09v7.09zm0.554-8.27q-0.319 0-0.549-0.217-0.226-0.217-0.226-0.522 0-0.305 0.226-0.522 0.231-0.217 0.549-0.217t0.545 0.217q0.231 0.217 0.231 0.522 0 0.305-0.231 0.522-0.226 0.217-0.545 0.217z"/>
  <path d="m144 84.4-2.62 7.09h-1.11l-2.62-7.09h1.18l1.96 5.65h0.0739l1.96-5.65z"/>
  <path d="m148 91.6q-1.02 0-1.77-0.452-0.739-0.457-1.14-1.27-0.397-0.822-0.397-1.91 0-1.09 0.397-1.92 0.402-0.836 1.12-1.3 0.72-0.471 1.68-0.471 0.554 0 1.09 0.185 0.54 0.185 0.983 0.6 0.443 0.411 0.706 1.09 0.263 0.679 0.263 1.67v0.462h-5.47v-0.942h4.36q0-0.6-0.24-1.07-0.235-0.471-0.674-0.743-0.434-0.272-1.02-0.272-0.651 0-1.13 0.323-0.471 0.319-0.725 0.831t-0.254 1.1v0.628q0 0.803 0.277 1.36 0.282 0.554 0.78 0.845 0.499 0.286 1.16 0.286 0.429 0 0.776-0.12 0.351-0.125 0.605-0.369 0.254-0.249 0.392-0.619l1.05 0.295q-0.166 0.536-0.559 0.942-0.392 0.402-0.969 0.628-0.577 0.222-1.3 0.222z"/>
  <path d="m157 82v9.45h-1.09v-9.45z"/>
  <path d="m159 91.5v-7.09h1.09v7.09zm0.554-8.27q-0.319 0-0.549-0.217-0.226-0.217-0.226-0.522 0-0.305 0.226-0.522 0.231-0.217 0.549-0.217 0.319 0 0.545 0.217 0.231 0.217 0.231 0.522 0 0.305-0.231 0.522-0.226 0.217-0.545 0.217z"/>
  <path d="m163 91.5v-9.45h1.09v3.49h0.0923q0.12-0.185 0.332-0.471 0.217-0.291 0.619-0.517 0.406-0.231 1.1-0.231 0.896 0 1.58 0.448t1.07 1.27q0.383 0.822 0.383 1.94 0 1.13-0.383 1.95-0.383 0.822-1.06 1.27-0.679 0.448-1.56 0.448-0.683 0-1.09-0.226-0.411-0.231-0.632-0.522-0.222-0.295-0.342-0.489h-0.129v1.09zm1.07-3.55q0 0.803 0.235 1.42 0.235 0.609 0.688 0.956 0.452 0.342 1.11 0.342 0.683 0 1.14-0.36 0.462-0.365 0.692-0.979 0.235-0.619 0.235-1.38 0-0.748-0.231-1.35-0.226-0.605-0.688-0.956-0.457-0.355-1.15-0.355-0.665 0-1.12 0.337-0.452 0.332-0.683 0.933-0.231 0.596-0.231 1.39z"/>
  <path d="m171 91.5v-7.09h1.05v1.07h0.0739q0.194-0.526 0.702-0.854 0.508-0.328 1.14-0.328 0.12 0 0.3 0.0046 0.18 0.0046 0.272 0.0138v1.11q-0.0554-0.0138-0.254-0.0416-0.194-0.0323-0.411-0.0323-0.517 0-0.923 0.217-0.402 0.212-0.637 0.591-0.231 0.374-0.231 0.854v4.49z"/>
  <path d="m177 91.6q-0.674 0-1.22-0.254-0.549-0.259-0.873-0.743-0.323-0.489-0.323-1.18 0-0.609 0.24-0.988 0.24-0.383 0.642-0.6 0.402-0.217 0.886-0.323 0.489-0.111 0.983-0.175 0.646-0.0831 1.05-0.125 0.406-0.0462 0.591-0.152 0.189-0.106 0.189-0.369v-0.0369q0-0.683-0.374-1.06-0.369-0.379-1.12-0.379-0.78 0-1.22 0.342-0.443 0.342-0.623 0.729l-1.03-0.369q0.277-0.646 0.739-1.01 0.466-0.365 1.02-0.508 0.554-0.148 1.09-0.148 0.342 0 0.785 0.0831 0.448 0.0785 0.863 0.328 0.42 0.249 0.697 0.752t0.277 1.35v4.67h-1.09v-0.96h-0.0554q-0.111 0.231-0.369 0.494-0.259 0.263-0.688 0.448t-1.05 0.185zm0.166-0.979q0.646 0 1.09-0.254 0.448-0.254 0.674-0.656 0.231-0.402 0.231-0.845v-0.997q-0.0692 0.0831-0.305 0.152-0.231 0.0646-0.536 0.115-0.3 0.0462-0.586 0.0831-0.282 0.0323-0.457 0.0554-0.425 0.0554-0.794 0.18-0.365 0.12-0.591 0.365-0.222 0.24-0.222 0.656 0 0.568 0.42 0.859 0.425 0.286 1.08 0.286z"/>
  <path d="m183 91.5v-7.09h1.05v1.07h0.0739q0.194-0.526 0.702-0.854 0.508-0.328 1.14-0.328 0.12 0 0.3 0.0046t0.272 0.0138v1.11q-0.0554-0.0138-0.254-0.0416-0.194-0.0323-0.411-0.0323-0.517 0-0.923 0.217-0.402 0.212-0.637 0.591-0.231 0.374-0.231 0.854v4.49z"/>
  <path d="m188 94.1q-0.277 0-0.494-0.0462-0.217-0.0416-0.3-0.0831l0.277-0.96q0.397 0.102 0.702 0.0739 0.305-0.0277 0.54-0.272 0.24-0.24 0.439-0.78l0.203-0.554-2.62-7.13h1.18l1.96 5.65h0.0739l1.96-5.65h1.18l-3.01 8.12q-0.203 0.549-0.503 0.909-0.3 0.365-0.697 0.54-0.392 0.175-0.886 0.175z"/>
  <path d="m202 84.4v0.923h-3.82v-0.923zm-2.68 7.09v-8.07q0-0.609 0.286-1.02t0.743-0.609q0.457-0.203 0.965-0.203 0.402 0 0.656 0.0646 0.254 0.0646 0.379 0.12l-0.314 0.942q-0.0831-0.0277-0.231-0.0692-0.143-0.0416-0.379-0.0416-0.54 0-0.78 0.272-0.235 0.272-0.235 0.799v7.81z"/>
  <path d="m206 91.6q-0.96 0-1.69-0.457-0.72-0.457-1.13-1.28-0.402-0.822-0.402-1.92 0-1.11 0.402-1.93 0.406-0.826 1.13-1.28 0.725-0.457 1.69-0.457t1.68 0.457q0.725 0.457 1.13 1.28 0.406 0.826 0.406 1.93 0 1.1-0.406 1.92-0.402 0.822-1.13 1.28-0.72 0.457-1.68 0.457zm0-0.979q0.729 0 1.2-0.374t0.697-0.983 0.226-1.32q0-0.711-0.226-1.32-0.226-0.614-0.697-0.993t-1.2-0.379-1.2 0.379q-0.471 0.379-0.697 0.993-0.226 0.614-0.226 1.32 0 0.711 0.226 1.32 0.226 0.609 0.697 0.983 0.471 0.374 1.2 0.374z"/>
  <path d="m211 91.5v-7.09h1.05v1.07h0.0739q0.194-0.526 0.702-0.854t1.14-0.328q0.12 0 0.3 0.0046 0.18 0.0046 0.272 0.0138v1.11q-0.0554-0.0138-0.254-0.0416-0.194-0.0323-0.411-0.0323-0.517 0-0.923 0.217-0.402 0.212-0.637 0.591-0.231 0.374-0.231 0.854v4.49z"/>
  <path d="m219 91.5v-9.45h1.09v3.49h0.0923q0.12-0.185 0.332-0.471 0.217-0.291 0.619-0.517 0.406-0.231 1.1-0.231 0.896 0 1.58 0.448t1.07 1.27q0.383 0.822 0.383 1.94 0 1.13-0.383 1.95-0.383 0.822-1.06 1.27-0.679 0.448-1.56 0.448-0.683 0-1.09-0.226-0.411-0.231-0.632-0.522-0.222-0.295-0.342-0.489h-0.129v1.09zm1.07-3.55q0 0.803 0.235 1.42 0.235 0.609 0.688 0.956 0.452 0.342 1.11 0.342 0.683 0 1.14-0.36 0.462-0.365 0.692-0.979 0.235-0.619 0.235-1.38 0-0.748-0.231-1.35-0.226-0.605-0.688-0.956-0.457-0.355-1.15-0.355-0.665 0-1.12 0.337-0.452 0.332-0.683 0.933-0.231 0.596-0.231 1.39z"/>
  <path d="m232 88.6v-4.19h1.09v7.09h-1.09v-1.2h-0.0739q-0.249 0.54-0.776 0.919-0.526 0.374-1.33 0.374-0.665 0-1.18-0.291-0.517-0.295-0.812-0.886-0.295-0.596-0.295-1.5v-4.51h1.09v4.43q0 0.776 0.434 1.24 0.439 0.462 1.12 0.462 0.406 0 0.826-0.208 0.425-0.208 0.711-0.637 0.291-0.429 0.291-1.09z"/>
  <path d="m235 91.5v-7.09h1.09v7.09zm0.554-8.27q-0.319 0-0.549-0.217-0.226-0.217-0.226-0.522 0-0.305 0.226-0.522 0.231-0.217 0.549-0.217t0.545 0.217q0.231 0.217 0.231 0.522 0 0.305-0.231 0.522-0.226 0.217-0.545 0.217z"/>
  <path d="m239 82v9.45h-1.09v-9.45z"/>
  <path d="m244 91.6q-0.886 0-1.56-0.448-0.679-0.452-1.06-1.27-0.383-0.826-0.383-1.95 0-1.12 0.383-1.94t1.07-1.27 1.58-0.448q0.692 0 1.09 0.231 0.406 0.226 0.619 0.517 0.217 0.286 0.337 0.471h0.0923v-3.49h1.09v9.45h-1.05v-1.09h-0.129q-0.12 0.194-0.342 0.489-0.222 0.291-0.632 0.522-0.411 0.226-1.09 0.226zm0.148-0.979q0.656 0 1.11-0.342 0.452-0.346 0.688-0.956 0.235-0.614 0.235-1.42 0-0.794-0.231-1.39-0.231-0.6-0.683-0.933-0.452-0.337-1.12-0.337-0.692 0-1.15 0.355-0.457 0.351-0.688 0.956-0.226 0.6-0.226 1.35 0 0.757 0.231 1.38 0.235 0.614 0.692 0.979 0.462 0.36 1.14 0.36z"/>
  <path d="m249 91.5v-7.09h1.09v7.09zm0.554-8.27q-0.319 0-0.549-0.217-0.226-0.217-0.226-0.522 0-0.305 0.226-0.522 0.231-0.217 0.549-0.217t0.545 0.217q0.231 0.217 0.231 0.522 0 0.305-0.231 0.522-0.226 0.217-0.545 0.217z"/>
  <path d="m253 87.2v4.27h-1.09v-7.09h1.05v1.11h0.0923q0.249-0.54 0.757-0.868 0.508-0.332 1.31-0.332 0.72 0 1.26 0.295 0.54 0.291 0.84 0.886 0.3 0.591 0.3 1.5v4.51h-1.09v-4.43q0-0.836-0.434-1.3-0.434-0.471-1.19-0.471-0.522 0-0.933 0.226-0.406 0.226-0.642 0.66t-0.235 1.05z"/>
  <path d="m263 94.3q-0.789 0-1.36-0.203-0.568-0.199-0.946-0.526-0.374-0.323-0.596-0.692l0.868-0.609q0.148 0.194 0.374 0.443 0.226 0.254 0.619 0.439 0.397 0.189 1.04 0.189 0.859 0 1.42-0.415 0.559-0.415 0.559-1.3v-1.44h-0.0923q-0.12 0.194-0.342 0.48-0.217 0.282-0.628 0.503-0.406 0.217-1.1 0.217-0.859 0-1.54-0.406-0.679-0.406-1.08-1.18-0.392-0.776-0.392-1.88 0-1.09 0.383-1.9 0.383-0.812 1.07-1.26 0.683-0.448 1.58-0.448 0.692 0 1.1 0.231 0.411 0.226 0.628 0.517 0.222 0.286 0.342 0.471h0.111v-1.13h1.05v7.29q0 0.914-0.415 1.49-0.411 0.577-1.11 0.845-0.692 0.272-1.54 0.272zm-0.0369-3.9q0.656 0 1.11-0.3 0.452-0.3 0.688-0.863 0.235-0.563 0.235-1.35 0-0.766-0.231-1.35-0.231-0.586-0.683-0.919-0.452-0.332-1.12-0.332-0.692 0-1.15 0.351-0.457 0.351-0.688 0.942-0.226 0.591-0.226 1.31 0 0.739 0.231 1.31 0.235 0.563 0.692 0.886 0.462 0.319 1.14 0.319z"/>
  <path d="m278 82h1.14v6.26q0 0.969-0.457 1.73-0.452 0.757-1.28 1.2-0.826 0.434-1.94 0.434t-1.94-0.434q-0.826-0.439-1.28-1.2-0.452-0.762-0.452-1.73v-6.26h1.14v6.17q0 0.692 0.305 1.23 0.305 0.536 0.868 0.845 0.568 0.305 1.36 0.305t1.36-0.305q0.568-0.309 0.868-0.845 0.305-0.54 0.305-1.23z"/>
  <path d="m282 82v9.45h-1.14v-9.45z"/>
  <path d="m290 86-0.979 0.277q-0.0923-0.245-0.272-0.475-0.175-0.235-0.48-0.388t-0.78-0.152q-0.651 0-1.08 0.3-0.429 0.295-0.429 0.752 0 0.406 0.295 0.642 0.295 0.235 0.923 0.392l1.05 0.259q0.951 0.231 1.42 0.706 0.466 0.471 0.466 1.21 0 0.609-0.351 1.09-0.346 0.48-0.969 0.757-0.623 0.277-1.45 0.277-1.08 0-1.8-0.471-0.711-0.471-0.9-1.38l1.03-0.259q0.148 0.572 0.559 0.859 0.415 0.286 1.08 0.286 0.762 0 1.21-0.323 0.452-0.328 0.452-0.785 0-0.369-0.259-0.619-0.259-0.254-0.794-0.379l-1.18-0.277q-0.974-0.231-1.43-0.716-0.452-0.489-0.452-1.22 0-0.6 0.337-1.06 0.342-0.462 0.928-0.725 0.591-0.263 1.34-0.263 1.05 0 1.65 0.462 0.605 0.462 0.859 1.22z"/>
  <path d="m298 84.4v0.923h-3.82v-0.923zm-2.68 7.09v-8.07q0-0.609 0.286-1.02t0.743-0.609 0.965-0.203q0.402 0 0.656 0.0646 0.254 0.0646 0.379 0.12l-0.314 0.942q-0.0831-0.0277-0.231-0.0692-0.143-0.0416-0.379-0.0416-0.54 0-0.78 0.272-0.235 0.272-0.235 0.799v7.81z"/>
  <path d="m302 91.6q-0.96 0-1.69-0.457-0.72-0.457-1.13-1.28-0.402-0.822-0.402-1.92 0-1.11 0.402-1.93 0.406-0.826 1.13-1.28 0.725-0.457 1.69-0.457 0.96 0 1.68 0.457 0.725 0.457 1.13 1.28 0.406 0.826 0.406 1.93 0 1.1-0.406 1.92-0.402 0.822-1.13 1.28-0.72 0.457-1.68 0.457zm0-0.979q0.729 0 1.2-0.374t0.697-0.983q0.226-0.609 0.226-1.32 0-0.711-0.226-1.32-0.226-0.614-0.697-0.993t-1.2-0.379q-0.729 0-1.2 0.379t-0.697 0.993q-0.226 0.614-0.226 1.32 0 0.711 0.226 1.32t0.697 0.983 1.2 0.374z"/>
  <path d="m307 91.5v-7.09h1.05v1.07h0.0739q0.194-0.526 0.702-0.854t1.14-0.328q0.12 0 0.3 0.0046t0.272 0.0138v1.11q-0.0554-0.0138-0.254-0.0416-0.194-0.0323-0.411-0.0323-0.517 0-0.923 0.217-0.402 0.212-0.637 0.591-0.231 0.374-0.231 0.854v4.49z"/>
  <path d="m319 84.4v0.923h-3.67v-0.923zm-2.6-1.7h1.09v6.76q0 0.462 0.134 0.692 0.138 0.226 0.351 0.305 0.217 0.0739 0.457 0.0739 0.18 0 0.295-0.0185 0.115-0.0231 0.185-0.0369l0.222 0.979q-0.111 0.0416-0.309 0.0831-0.198 0.0462-0.503 0.0462-0.462 0-0.905-0.199-0.439-0.199-0.729-0.605-0.286-0.406-0.286-1.02z"/>
  <path d="m322 87.2v4.27h-1.09v-9.45h1.09v3.47h0.0923q0.249-0.549 0.748-0.873 0.503-0.328 1.34-0.328 0.725 0 1.27 0.291 0.545 0.286 0.845 0.882 0.305 0.591 0.305 1.5v4.51h-1.09v-4.43q0-0.845-0.439-1.31-0.434-0.466-1.2-0.466-0.536 0-0.96 0.226-0.42 0.226-0.665 0.66-0.24 0.434-0.24 1.05z"/>
  <path d="m331 91.6q-1.02 0-1.77-0.452-0.739-0.457-1.14-1.27-0.397-0.822-0.397-1.91 0-1.09 0.397-1.92 0.402-0.836 1.12-1.3 0.72-0.471 1.68-0.471 0.554 0 1.09 0.185 0.54 0.185 0.983 0.6 0.443 0.411 0.706 1.09 0.263 0.679 0.263 1.67v0.462h-5.47v-0.942h4.36q0-0.6-0.24-1.07-0.235-0.471-0.674-0.743-0.434-0.272-1.02-0.272-0.651 0-1.13 0.323-0.471 0.319-0.725 0.831-0.254 0.512-0.254 1.1v0.628q0 0.803 0.277 1.36 0.282 0.554 0.78 0.845 0.499 0.286 1.16 0.286 0.429 0 0.776-0.12 0.351-0.125 0.605-0.369 0.254-0.249 0.392-0.619l1.05 0.295q-0.166 0.536-0.559 0.942-0.392 0.402-0.969 0.628-0.577 0.222-1.3 0.222z"/>
  <path d="m341 91.5-2.16-7.09h1.14l1.53 5.43h0.0739l1.51-5.43h1.16l1.5 5.41h0.0739l1.53-5.41h1.14l-2.16 7.09h-1.07l-1.55-5.45h-0.111l-1.55 5.45z"/>
  <path d="m353 91.6q-1.02 0-1.77-0.452-0.739-0.457-1.14-1.27-0.397-0.822-0.397-1.91 0-1.09 0.397-1.92 0.402-0.836 1.12-1.3 0.72-0.471 1.68-0.471 0.554 0 1.09 0.185 0.54 0.185 0.983 0.6 0.443 0.411 0.706 1.09t0.263 1.67v0.462h-5.47v-0.942h4.36q0-0.6-0.24-1.07-0.235-0.471-0.674-0.743-0.434-0.272-1.02-0.272-0.651 0-1.13 0.323-0.471 0.319-0.725 0.831-0.254 0.512-0.254 1.1v0.628q0 0.803 0.277 1.36 0.282 0.554 0.78 0.845 0.499 0.286 1.16 0.286 0.429 0 0.776-0.12 0.351-0.125 0.605-0.369 0.254-0.249 0.392-0.619l1.05 0.295q-0.166 0.536-0.559 0.942-0.392 0.402-0.969 0.628-0.577 0.222-1.3 0.222z"/>
  <path d="m357 91.5v-9.45h1.09v3.49h0.0923q0.12-0.185 0.332-0.471 0.217-0.291 0.619-0.517 0.406-0.231 1.1-0.231 0.896 0 1.58 0.448 0.683 0.448 1.07 1.27t0.383 1.94q0 1.13-0.383 1.95-0.383 0.822-1.06 1.27-0.679 0.448-1.56 0.448-0.683 0-1.09-0.226-0.411-0.231-0.632-0.522-0.222-0.295-0.342-0.489h-0.129v1.09zm1.07-3.55q0 0.803 0.235 1.42 0.235 0.609 0.688 0.956 0.452 0.342 1.11 0.342 0.683 0 1.14-0.36 0.462-0.365 0.692-0.979 0.235-0.619 0.235-1.38 0-0.748-0.231-1.35-0.226-0.605-0.688-0.956-0.457-0.355-1.15-0.355-0.665 0-1.12 0.337-0.452 0.332-0.683 0.933-0.231 0.596-0.231 1.39z"/>
  <path d="m366 91.6q-0.342 0-0.586-0.245t-0.245-0.586q0-0.342 0.245-0.586 0.245-0.245 0.586-0.245t0.586 0.245q0.245 0.245 0.245 0.586 0 0.226-0.115 0.415-0.111 0.189-0.3 0.305-0.185 0.111-0.415 0.111z"/>
 </g>
 <path d="m488 22.8-14.6 9.26a0.639 0.703 0 0 0 1e-5 1.22l14.6 9.26a1.92 2.11 0 0 0 1.92-4e-5l14.6-9.26a0.639 0.703 0 0 0 0-1.22l-14.6-9.26a1.92 2.11 0 0 0-1.92-3e-6zm-52.4 11.1-14.6 9.26a0.639 0.703 0 0 0 0 1.22l32 20.4a1.92 2.11 0 0 0 1.92 2.5e-5l14.6-9.26a0.639 0.703 0 0 0 1e-5 -1.22l-32-20.4a1.92 2.11 0 0 0-1.92-6e-6zm35.9 1.85v18.5a1.92 2.11 0 0 0 0.958 1.83l14.6 9.26a0.639 0.703 0 0 0 0.958-0.609v-18.5a1.92 2.11 0 0 0-0.958-1.83l-14.6-9.26a0.639 0.703 0 0 0-0.958 0.609zm34-0.608-14.6 9.26a1.92 2.11 0 0 0-0.958 1.83v18.5a0.639 0.703 0 0 0 0.958 0.609l14.6-9.26a1.92 2.11 0 0 0 0.958-1.83v-18.5a0.639 0.703 0 0 0-0.958-0.609zm-86.4 11.7v18.5a1.92 2.11 0 0 0 0.958 1.83l15.5 9.88a1.92 2.11 0 0 1 0.958 1.83v19.8a1.92 2.11 0 0 0 0.958 1.83l14.6 9.26a0.639 0.703 0 0 0 0.958-0.609v-40.7a1.92 2.11 0 0 0-0.958-1.83l-32-20.4a0.639 0.703 0 0 0-0.958 0.609zm51.4 10.5-14.6 9.26a1.92 2.11 0 0 0-0.958 1.83v40.7a0.639 0.703 0 0 0 0.958 0.609l14.6-9.26a1.92 2.11 0 0 0 0.958-1.83v-40.7a0.639 0.703 0 0 0-0.958-0.609z" fill="#45979b"/>
</svg>
