<?xml version="1.0" encoding="UTF-8"?>
<!-- Created with Inkscape (http://www.inkscape.org/) -->
<svg width="2000" height="500" version="1.1" viewBox="0 0 529 132" xmlns="http://www.w3.org/2000/svg">
 <text x="19.510059" y="74.314461" font-family="Inter" font-size="47px" font-weight="bold" style="fill: var(--color-fg-default);">Debrix</text>
 <path d="m488 22.8-14.6 9.26a0.639 0.703 0 0 0 1e-5 1.22l14.6 9.26a1.92 2.11 0 0 0 1.92-4e-5l14.6-9.26a0.639 0.703 0 0 0 0-1.22l-14.6-9.26a1.92 2.11 0 0 0-1.92-3e-6zm-52.4 11.1-14.6 9.26a0.639 0.703 0 0 0 0 1.22l32 20.4a1.92 2.11 0 0 0 1.92 2.5e-5l14.6-9.26a0.639 0.703 0 0 0 1e-5 -1.22l-32-20.4a1.92 2.11 0 0 0-1.92-6e-6zm35.9 1.85v18.5a1.92 2.11 0 0 0 0.958 1.83l14.6 9.26a0.639 0.703 0 0 0 0.958-0.609v-18.5a1.92 2.11 0 0 0-0.958-1.83l-14.6-9.26a0.639 0.703 0 0 0-0.958 0.609zm34-0.608-14.6 9.26a1.92 2.11 0 0 0-0.958 1.83v18.5a0.639 0.703 0 0 0 0.958 0.609l14.6-9.26a1.92 2.11 0 0 0 0.958-1.83v-18.5a0.639 0.703 0 0 0-0.958-0.609zm-86.4 11.7v18.5a1.92 2.11 0 0 0 0.958 1.83l15.5 9.88a1.92 2.11 0 0 1 0.958 1.83v19.8a1.92 2.11 0 0 0 0.958 1.83l14.6 9.26a0.639 0.703 0 0 0 0.958-0.609v-40.7a1.92 2.11 0 0 0-0.958-1.83l-32-20.4a0.639 0.703 0 0 0-0.958 0.609zm51.4 10.5-14.6 9.26a1.92 2.11 0 0 0-0.958 1.83v40.7a0.639 0.703 0 0 0 0.958 0.609l14.6-9.26a1.92 2.11 0 0 0 0.958-1.83v-40.7a0.639 0.703 0 0 0-0.958-0.609z" style="fill: var(--color-canvas-subtle, #4e89e8);"/>
 <text x="22.400236" y="91.478806" font-family="Inter" font-size="13px" style="fill: var(--color-fg-default);">Next-gen declarative library for building UIs for the web.</text>
</svg>
